# xmcd
#
# Track frame offsets: 
#        150
#        18320
#        29265
#        41465
#        52900
#        69370
#        83415
#        96742
#        111082
#        121887
#        134987
#        151137
#        165285
#        177250
#        192537
#        204072
#        217225
#        231450
#        246252
#        259797
#        276925
#        287445
#
# Disc length: 4049 seconds
#
# Revision: 9
# Processed by: cddbd v1.5.2PL0 Copyright (c) Steve Scherf et al.
# Submitted via: ExactAudioCopy v1.0b1
#
DISCID=390fcf16
DTITLE=Various Artist - Contemporary Country Vol. 2 The Late '70s
DYEAR=1991
DGENRE=Country
TTITLE0=Hank Williams Jr. - Family Tradition
TTITLE1=Kendalls - Heaven's Just A Sin Away
TTITLE2=Moe Bandy - It's A Cheating Situation
TTITLE3=Waylon Jennings And Willie Nelson - Mammas Don't Let Your Babi
TTITLE3=es Grow Up To Be Cowboys
TTITLE4=Ronnie Milsap - It Was Almost Like A Song
TTITLE5=Merle Haggard - Ramblin' Fever
TTITLE6=Dolly Parton - Here You Come Again
TTITLE7=Bellamy Brothers - If I Said You Had A Beautiful Body Would Yo
TTITLE7=u Hold It Against Me
TTITLE8=George Jones And Tammy Wynette - Near You
TTITLE9=Conway Twitty - Happy Birthday Darlin'
TTITLE10=Willie Nelson - Blue Skies
TTITLE11=Emmylou Harris - Two More Bottles Of Wine
TTITLE12=Johnny Paycheck - Take This Job And Shove It
TTITLE13=John Conlee - Rose Colored Glasses
TTITLE14=Crystal Gayle - Don't It Make My Brown Eyes Blue
TTITLE15=Elvis Presley - Moody Blue
TTITLE16=Don Williams - Tulsa Time
TTITLE17=Waylon Jennings - Luckenbach Texas (Back To The Basics Of Lov
TTITLE17=e)
TTITLE18=Glen Campbell - Southern Nights
TTITLE19=George Jones And James Taylor - Bartender's Blues
TTITLE20=Barbara Mandrell - Sleeping Single In A Double Bed
TTITLE21=Charlie Daniels Band - The Devil Went Down To Georgia
EXTD=
EXTT0=
EXTT1=
EXTT2=
EXTT3=
EXTT4=
EXTT5=
EXTT6=
EXTT7=
EXTT8=
EXTT9=
EXTT10=
EXTT11=
EXTT12=
EXTT13=
EXTT14=
EXTT15=
EXTT16=
EXTT17=
EXTT18=
EXTT19=
EXTT20=
EXTT21=
PLAYORDER=
